<?xml version="1.0" standalone="no"?><!DOCTYPE svg PUBLIC "-//W3C//DTD SVG 1.1//EN" "http://www.w3.org/Graphics/SVG/1.1/DTD/svg11.dtd"><svg t="1702618578931" class="icon" viewBox="0 0 1024 1024" version="1.1" xmlns="http://www.w3.org/2000/svg" p-id="25017" width="128" height="128" xmlns:xlink="http://www.w3.org/1999/xlink"><path d="M279.552 128.128L731.904 128c57.088 0 77.76 5.952 98.56 17.088 20.928 11.136 37.312 27.52 48.448 48.384 11.136 20.864 17.088 41.6 17.088 98.56v439.872c0 57.088-5.952 77.76-17.088 98.56-11.136 20.928-27.52 37.312-48.384 48.448-20.864 11.136-41.6 17.088-98.56 17.088H292.032c-57.088 0-77.76-5.952-98.56-17.088a116.288 116.288 0 0 1-48.448-48.384c-10.24-19.264-16.128-38.4-16.96-86.08L128 292.096c0-57.088 5.952-77.76 17.088-98.56 11.136-20.928 27.52-37.312 48.384-48.448 19.264-10.24 38.4-16.128 86.08-16.96zM742.784 192H281.216l-19.52 0.64c-19.52 1.152-28.736 3.84-38.016 8.832a52.352 52.352 0 0 0-22.144 22.144c-3.2 5.952-5.44 11.904-6.976 20.544l-1.472 11.904-0.512 7.296-0.512 17.792v461.568l0.64 19.52c1.152 19.52 3.84 28.736 8.832 38.016a52.352 52.352 0 0 0 22.144 22.144c5.952 3.2 11.904 5.44 20.544 6.976l11.904 1.472 7.296 0.512 17.792 0.512h461.568l17.792-0.512 7.296-0.512 11.904-1.472c8.64-1.536 14.592-3.776 20.544-6.976a52.352 52.352 0 0 0 22.144-22.144c3.2-5.952 5.44-11.904 6.976-20.544l1.472-11.904 0.512-7.296 0.512-17.792V281.216l-0.512-17.792a238.272 238.272 0 0 0-0.512-7.296l-1.472-11.904a64.192 64.192 0 0 0-6.976-20.544 52.352 52.352 0 0 0-22.144-22.144 64.192 64.192 0 0 0-20.544-6.976l-11.904-1.472-7.296-0.512-17.792-0.512zM527.488 288c95.36 0 138.048 42.048 138.048 112.32 0 50.944-24.576 77.824-57.984 91.904l-7.296 2.816v1.28c52.096 11.904 84.736 45.184 84.736 110.4 0 60.672-40.768 123.52-129.408 128.896l-12.416 0.384H342.4v-448h185.088z m3.2 242.816H408.832v147.456h116.096c74.048 0 93.44-38.272 93.44-75.904 0-33.088-17.728-67.264-76.352-71.168l-11.456-0.384z m-8.192-185.088H408.896v127.36h117.376c49.536 0 72.768-26.944 72.768-62.72 0-38.272-18.752-61.568-66.56-64.384l-9.984-0.256z" fill="#62488a" p-id="25018"></path></svg>