<?xml version="1.0" standalone="no"?><!DOCTYPE svg PUBLIC "-//W3C//DTD SVG 1.1//EN" "http://www.w3.org/Graphics/SVG/1.1/DTD/svg11.dtd"><svg t="1702622119614" class="icon" viewBox="0 0 1024 1024" version="1.1" xmlns="http://www.w3.org/2000/svg" p-id="48209" width="128" height="128" xmlns:xlink="http://www.w3.org/1999/xlink"><path d="M513.194667 64a446.805333 446.805333 0 0 0-141.226667 870.826667c22.442667 3.968 29.226667-9.216 29.226667-21.205334 0-12.032 0.426667-40.405333 0-77.653333-124.416 26.837333-150.016-58.752-150.016-58.752-19.968-51.626667-49.578667-65.237333-49.578667-65.237333-40.789333-27.562667 2.816-27.178667 2.816-27.178667 44.8 3.2 68.394667 45.994667 68.394667 45.994667 39.978667 68.394667 104.405333 48.384 130.005333 37.205333 3.968-28.8 15.573333-48.810667 28.373333-59.605333-98.773333-11.605333-203.178667-49.578667-203.178666-220.8a172.8 172.8 0 0 1 45.994666-119.978667c-4.394667-11.221333-20.010667-56.832 4.394667-118.4 0 0 37.589333-12.032 122.794667 45.994667a422.826667 422.826667 0 0 1 223.573333 0c85.632-58.026667 123.221333-45.994667 123.221333-45.994667 24.405333 61.568 9.216 106.794667 4.394667 118.4a172.8 172.8 0 0 1 45.994667 119.978667c0 171.605333-104.362667 209.621333-203.946667 220.416 15.957333 13.994667 30.378667 40.789333 30.378667 82.389333v123.605333c0 11.989333 7.168 25.173333 29.994666 20.778667A446.805333 446.805333 0 0 0 513.194667 64z" fill="#000000" p-id="48210"></path></svg>